<svg width="3000" height="3000" viewBox="0 0 3000 3000" fill="none" xmlns="http://www.w3.org/2000/svg">
<rect width="3000" height="3000" fill="url(#paint0_radial_2324_263)" fill-opacity="0.2"/>
<g filter="url(#filter0_d_2324_263)">
<path d="M1529.85 2017.07L1295 1888.75V1307.75C1295 1307.75 1518.7 1442.99 1529.85 1449.24C1541 1455.5 1559.05 1456.09 1572.42 1449.24L1799 1305C1859 1259.5 1895.59 1188.75 1895.59 1132.4L1895.5 825L2027.82 738C2038.09 744.586 2036 809.007 2033.44 875.566V1255.69C2030.74 1296.05 2013.92 1325.9 1981 1343.87L1895.59 1395.07L1529.85 1623.75V2017.07Z" fill="url(#paint1_linear_2324_263)"/>
<g filter="url(#filter1_i_2324_263)">
<path d="M1530.21 1343.56L1768.68 1201.45L1896 1134C1894.46 1218.65 1842.5 1277.5 1768.68 1327.38C1694.86 1377.26 1573 1449 1573 1449C1559.84 1455.67 1546 1457 1529.5 1449.5L1295 1308L1384.32 1255.66L1530.21 1343.53V1343.56Z" fill="url(#paint2_linear_2324_263)"/>
</g>
<path d="M1895.5 825L1896 1134L1767.94 1202V911.048L1895.5 825Z" fill="url(#paint3_linear_2324_263)"/>
<g filter="url(#filter2_in_2324_263)">
<path d="M1530.01 605.5L1895.51 825L1768.01 916L1767.76 913.429L1527.55 777.308L1530.01 605.5Z" fill="url(#paint4_linear_2324_263)"/>
</g>
<path d="M1530.16 422.023L1961.14 684.353C1991.95 704.304 2006.22 714.638 2028.5 738L1895.5 825L1530 605.5L1302 748.478L1349.89 780.54L1183 877L963.984 763.052L1530.16 422.023Z" fill="url(#paint5_linear_2324_263)"/>
<g filter="url(#filter3_d_2324_263)">
<path d="M1043.66 1596.88L963.984 1546.12V1704.64L1295 1889V1734L1183 1676V877L963.984 763.066V877.242L1044 922L1043.66 1596.88Z" fill="url(#paint6_linear_2324_263)"/>
</g>
<path d="M1044 1514L962.984 1546.09L1044 1597.5V1514Z" fill="url(#paint7_linear_2324_263)"/>
<path d="M1183 1676L1295 1623V1734L1183 1676Z" fill="url(#paint8_linear_2324_263)"/>
<g filter="url(#filter4_i_2324_263)">
<path d="M1295 924.613V1623L1183 1676V996.5L1295 924.613Z" fill="url(#paint9_linear_2324_263)"/>
</g>
<path d="M1348 781.5L1349 890L1183 996.5V877L1348 781.5Z" fill="url(#paint10_linear_2324_263)"/>
<g filter="url(#filter5_in_2324_263)">
<path d="M1527.54 777.538L1349 890L1348 781.5L1302 748.5L1530 605.5L1527.54 777.538Z" fill="url(#paint11_linear_2324_263)"/>
</g>
</g>
<g filter="url(#filter6_ii_2324_263)">
<path d="M587 2111.08V2353.08H549V2111.08H587Z" fill="white"/>
<path d="M863.545 2111.3V2352.86H835.238L703.61 2163.2H701.251V2352.86H672V2111.3H700.307L832.407 2301.43H834.766V2111.3H863.545Z" fill="white"/>
<path d="M948.547 2352.86V2111.3H1093.39V2137.25H977.798V2218.87H1082.53V2244.82H977.798V2352.86H948.547Z" fill="white"/>
<path d="M1391.63 2232.08C1391.63 2257.56 1387.03 2279.57 1377.83 2298.13C1368.63 2316.69 1356.01 2331 1339.97 2341.06C1323.93 2351.13 1305.61 2356.16 1285.01 2356.16C1264.41 2356.16 1246.08 2351.13 1230.04 2341.06C1214 2331 1201.38 2316.69 1192.18 2298.13C1182.98 2279.57 1178.38 2257.56 1178.38 2232.08C1178.38 2206.6 1182.98 2184.59 1192.18 2166.03C1201.38 2147.47 1214 2133.16 1230.04 2123.1C1246.08 2113.03 1264.41 2108 1285.01 2108C1305.61 2108 1323.93 2113.03 1339.97 2123.1C1356.01 2133.16 1368.63 2147.47 1377.83 2166.03C1387.03 2184.59 1391.63 2206.6 1391.63 2232.08ZM1363.32 2232.08C1363.32 2211.16 1359.82 2193.51 1352.83 2179.12C1345.91 2164.73 1336.51 2153.84 1324.64 2146.45C1312.84 2139.06 1299.63 2135.36 1285.01 2135.36C1270.38 2135.36 1257.13 2139.06 1245.26 2146.45C1233.46 2153.84 1224.07 2164.73 1217.07 2179.12C1210.15 2193.51 1206.69 2211.16 1206.69 2232.08C1206.69 2253 1210.15 2270.65 1217.07 2285.04C1224.07 2299.43 1233.46 2310.32 1245.26 2317.71C1257.13 2325.1 1270.38 2328.8 1285.01 2328.8C1299.63 2328.8 1312.84 2325.1 1324.64 2317.71C1336.51 2310.32 1345.91 2299.43 1352.83 2285.04C1359.82 2270.65 1363.32 2253 1363.32 2232.08Z" fill="white"/>
<path d="M1476.63 2137.25V2111.3H1657.8V2137.25H1581.84V2352.86H1552.59V2137.25H1476.63Z" fill="white"/>
<g filter="url(#filter7_i_2324_263)">
<path d="M1742.8 2352.86V2111.3H1888.58V2137.25H1773.55V2218.87H1881.03V2244.82H1773.55V2326.91H1890.47V2352.86H1742.8Z" fill="url(#paint12_linear_2324_263)"/>
</g>
<path d="M2179.28 2186.79H2150.03C2148.3 2178.37 2145.27 2170.98 2140.95 2164.61C2136.7 2158.25 2131.51 2152.9 2125.38 2148.57C2119.32 2144.17 2112.6 2140.87 2105.21 2138.67C2097.82 2136.46 2090.11 2135.36 2082.09 2135.36C2067.47 2135.36 2054.22 2139.06 2042.34 2146.45C2030.55 2153.84 2021.15 2164.73 2014.16 2179.12C2007.24 2193.51 2003.78 2211.16 2003.78 2232.08C2003.78 2253 2007.24 2270.65 2014.16 2285.04C2021.15 2299.43 2030.55 2310.32 2042.34 2317.71C2054.22 2325.1 2067.47 2328.8 2082.09 2328.8C2090.11 2328.8 2097.82 2327.69 2105.21 2325.49C2112.6 2323.29 2119.32 2320.03 2125.38 2315.7C2131.51 2311.3 2136.7 2305.91 2140.95 2299.55C2145.27 2293.1 2148.3 2285.71 2150.03 2277.37H2179.28C2177.08 2289.72 2173.07 2300.76 2167.25 2310.51C2161.43 2320.26 2154.2 2328.56 2145.55 2335.4C2136.9 2342.16 2127.19 2347.31 2116.41 2350.85C2105.72 2354.39 2094.28 2356.16 2082.09 2356.16C2061.49 2356.16 2043.17 2351.13 2027.13 2341.06C2011.09 2331 1998.47 2316.69 1989.27 2298.13C1980.07 2279.57 1975.47 2257.56 1975.47 2232.08C1975.47 2206.6 1980.07 2184.59 1989.27 2166.03C1998.47 2147.47 2011.09 2133.16 2027.13 2123.1C2043.17 2113.03 2061.49 2108 2082.09 2108C2094.28 2108 2105.72 2109.77 2116.41 2113.31C2127.19 2116.85 2136.9 2122.04 2145.55 2128.88C2154.2 2135.64 2161.43 2143.9 2167.25 2153.65C2173.07 2163.32 2177.08 2174.36 2179.28 2186.79Z" fill="white"/>
<path d="M2264.27 2352.86V2111.3H2293.52V2218.87H2422.32V2111.3H2451.57V2352.86H2422.32V2244.82H2293.52V2352.86H2264.27Z" fill="white"/>
</g>
<g filter="url(#filter8_i_2324_263)">
<g filter="url(#filter9_i_2324_263)">
<path d="M549.935 2591.46V2449.74H597.821C608.939 2449.74 618.027 2451.74 625.085 2455.76C632.19 2459.72 637.449 2465.1 640.863 2471.88C644.277 2478.66 645.984 2486.23 645.984 2494.58C645.984 2502.93 644.277 2510.52 640.863 2517.34C637.495 2524.17 632.282 2529.62 625.224 2533.68C618.166 2537.69 609.124 2539.7 598.098 2539.7H563.775V2524.47H597.544C605.156 2524.47 611.269 2523.16 615.882 2520.53C620.495 2517.9 623.84 2514.35 625.916 2509.87C628.038 2505.35 629.099 2500.25 629.099 2494.58C629.099 2488.9 628.038 2483.83 625.916 2479.35C623.84 2474.88 620.472 2471.37 615.813 2468.84C611.153 2466.25 604.972 2464.96 597.267 2464.96H567.097V2591.46H549.935ZM767.164 2591.46V2449.74H784.325V2576.23H850.203V2591.46H767.164ZM985.067 2591.46H967.075L1019.11 2449.74H1036.83L1088.87 2591.46H1070.87L1028.52 2472.16H1027.42L985.067 2591.46ZM991.71 2536.1H1064.23V2551.32H991.71V2536.1ZM1311.86 2494.02H1294.69C1293.68 2489.09 1291.9 2484.75 1289.37 2481.02C1286.87 2477.28 1283.83 2474.14 1280.23 2471.6C1276.68 2469.02 1272.73 2467.08 1268.4 2465.79C1264.06 2464.5 1259.54 2463.85 1254.84 2463.85C1246.25 2463.85 1238.48 2466.02 1231.52 2470.36C1224.6 2474.69 1219.08 2481.08 1214.98 2489.53C1210.92 2497.97 1208.89 2508.33 1208.89 2520.6C1208.89 2532.87 1210.92 2543.23 1214.98 2551.67C1219.08 2560.11 1224.6 2566.5 1231.52 2570.84C1238.48 2575.17 1246.25 2577.34 1254.84 2577.34C1259.54 2577.34 1264.06 2576.69 1268.4 2575.4C1272.73 2574.11 1276.68 2572.2 1280.23 2569.66C1283.83 2567.08 1286.87 2563.92 1289.37 2560.18C1291.9 2556.4 1293.68 2552.06 1294.69 2547.17H1311.86C1310.56 2554.41 1308.21 2560.89 1304.8 2566.61C1301.38 2572.33 1297.14 2577.2 1292.06 2581.22C1286.99 2585.18 1281.29 2588.2 1274.97 2590.28C1268.7 2592.36 1261.99 2593.39 1254.84 2593.39C1242.75 2593.39 1232 2590.44 1222.59 2584.54C1213.18 2578.63 1205.77 2570.24 1200.38 2559.35C1194.98 2548.46 1192.28 2535.54 1192.28 2520.6C1192.28 2505.65 1194.98 2492.73 1200.38 2481.85C1205.77 2470.96 1213.18 2462.56 1222.59 2456.66C1232 2450.75 1242.75 2447.8 1254.84 2447.8C1261.99 2447.8 1268.7 2448.84 1274.97 2450.91C1281.29 2452.99 1286.99 2456.03 1292.06 2460.05C1297.14 2464.02 1301.38 2468.86 1304.8 2474.58C1308.21 2480.25 1310.56 2486.74 1311.86 2494.02ZM1433.12 2591.46V2449.74H1518.65V2464.96H1450.28V2512.85H1514.22V2528.07H1450.28V2576.23H1519.76V2591.46H1433.12ZM1643.12 2449.74H1663.6L1711.77 2567.38H1713.43L1761.59 2449.74H1782.07V2591.46H1766.02V2483.78H1764.63L1720.35 2591.46H1704.85L1660.56 2483.78H1659.17V2591.46H1643.12V2449.74ZM1910.02 2591.46V2449.74H1995.55V2464.96H1927.18V2512.85H1991.12V2528.07H1927.18V2576.23H1996.65V2591.46H1910.02ZM2232.39 2449.74V2591.46H2215.79L2138.56 2480.18H2137.17V2591.46H2120.01V2449.74H2136.62L2214.12 2561.29H2215.51V2449.74H2232.39ZM2352.52 2464.96V2449.74H2458.81V2464.96H2414.24V2591.46H2397.08V2464.96H2352.52Z" fill="url(#paint13_linear_2324_263)"/>
</g>
</g>
<defs>
<filter id="filter0_d_2324_263" x="718.084" y="177.123" width="1572.35" height="2094.84" filterUnits="userSpaceOnUse" color-interpolation-filters="sRGB">
<feFlood flood-opacity="0" result="BackgroundImageFix"/>
<feColorMatrix in="SourceAlpha" type="matrix" values="0 0 0 0 0 0 0 0 0 0 0 0 0 0 0 0 0 0 127 0" result="hardAlpha"/>
<feOffset dx="5" dy="5"/>
<feGaussianBlur stdDeviation="124.95"/>
<feComposite in2="hardAlpha" operator="out"/>
<feColorMatrix type="matrix" values="0 0 0 0 0.521569 0 0 0 0 0.168627 0 0 0 0 0.843137 0 0 0 0.4 0"/>
<feBlend mode="normal" in2="BackgroundImageFix" result="effect1_dropShadow_2324_263"/>
<feBlend mode="normal" in="SourceGraphic" in2="effect1_dropShadow_2324_263" result="shape"/>
</filter>
<filter id="filter1_i_2324_263" x="1295" y="1132" width="601" height="322.586" filterUnits="userSpaceOnUse" color-interpolation-filters="sRGB">
<feFlood flood-opacity="0" result="BackgroundImageFix"/>
<feBlend mode="normal" in="SourceGraphic" in2="BackgroundImageFix" result="shape"/>
<feColorMatrix in="SourceAlpha" type="matrix" values="0 0 0 0 0 0 0 0 0 0 0 0 0 0 0 0 0 0 127 0" result="hardAlpha"/>
<feOffset dy="-3"/>
<feGaussianBlur stdDeviation="1"/>
<feComposite in2="hardAlpha" operator="arithmetic" k2="-1" k3="1"/>
<feColorMatrix type="matrix" values="0 0 0 0 0 0 0 0 0 0 0 0 0 0 0 0 0 0 0.25 0"/>
<feBlend mode="normal" in2="shape" result="effect1_innerShadow_2324_263"/>
</filter>
<filter id="filter2_in_2324_263" x="1527.55" y="605.5" width="367.961" height="315.036" filterUnits="userSpaceOnUse" color-interpolation-filters="sRGB">
<feFlood flood-opacity="0" result="BackgroundImageFix"/>
<feBlend mode="normal" in="SourceGraphic" in2="BackgroundImageFix" result="shape"/>
<feColorMatrix in="SourceAlpha" type="matrix" values="0 0 0 0 0 0 0 0 0 0 0 0 0 0 0 0 0 0 127 0" result="hardAlpha"/>
<feOffset dy="4.5357"/>
<feGaussianBlur stdDeviation="2.26785"/>
<feComposite in2="hardAlpha" operator="arithmetic" k2="-1" k3="1"/>
<feColorMatrix type="matrix" values="0 0 0 0 0 0 0 0 0 0 0 0 0 0 0 0 0 0 0.25 0"/>
<feBlend mode="normal" in2="shape" result="effect1_innerShadow_2324_263"/>
<feTurbulence type="fractalNoise" baseFrequency="2 2" stitchTiles="stitch" numOctaves="3" result="noise" seed="2716" />
<feColorMatrix in="noise" type="luminanceToAlpha" result="alphaNoise" />
<feComponentTransfer in="alphaNoise" result="coloredNoise1">
<feFuncA type="discrete" tableValues="1 1 1 1 1 1 1 1 1 1 1 1 1 1 1 1 1 1 1 1 1 1 1 1 1 1 1 1 1 1 1 1 1 1 1 1 1 1 1 1 1 1 1 1 1 1 1 1 1 1 1 0 0 0 0 0 0 0 0 0 0 0 0 0 0 0 0 0 0 0 0 0 0 0 0 0 0 0 0 0 0 0 0 0 0 0 0 0 0 0 0 0 0 0 0 0 0 0 0 0 "/>
</feComponentTransfer>
<feComposite operator="in" in2="effect1_innerShadow_2324_263" in="coloredNoise1" result="noise1Clipped" />
<feFlood flood-color="rgba(0, 0, 0, 0.25)" result="color1Flood" />
<feComposite operator="in" in2="noise1Clipped" in="color1Flood" result="color1" />
<feMerge result="effect2_noise_2324_263">
<feMergeNode in="effect1_innerShadow_2324_263" />
<feMergeNode in="color1" />
</feMerge>
</filter>
<filter id="filter3_d_2324_263" x="959.449" y="763.066" width="340.087" height="1135.01" filterUnits="userSpaceOnUse" color-interpolation-filters="sRGB">
<feFlood flood-opacity="0" result="BackgroundImageFix"/>
<feColorMatrix in="SourceAlpha" type="matrix" values="0 0 0 0 0 0 0 0 0 0 0 0 0 0 0 0 0 0 127 0" result="hardAlpha"/>
<feOffset dy="4.5357"/>
<feGaussianBlur stdDeviation="2.26785"/>
<feComposite in2="hardAlpha" operator="out"/>
<feColorMatrix type="matrix" values="0 0 0 0 0 0 0 0 0 0 0 0 0 0 0 0 0 0 0.25 0"/>
<feBlend mode="normal" in2="BackgroundImageFix" result="effect1_dropShadow_2324_263"/>
<feBlend mode="normal" in="SourceGraphic" in2="effect1_dropShadow_2324_263" result="shape"/>
</filter>
<filter id="filter4_i_2324_263" x="1183" y="924.613" width="112" height="752.387" filterUnits="userSpaceOnUse" color-interpolation-filters="sRGB">
<feFlood flood-opacity="0" result="BackgroundImageFix"/>
<feBlend mode="normal" in="SourceGraphic" in2="BackgroundImageFix" result="shape"/>
<feColorMatrix in="SourceAlpha" type="matrix" values="0 0 0 0 0 0 0 0 0 0 0 0 0 0 0 0 0 0 127 0" result="hardAlpha"/>
<feOffset dy="1"/>
<feGaussianBlur stdDeviation="2.26785"/>
<feComposite in2="hardAlpha" operator="arithmetic" k2="-1" k3="1"/>
<feColorMatrix type="matrix" values="0 0 0 0 0 0 0 0 0 0 0 0 0 0 0 0 0 0 0.25 0"/>
<feBlend mode="normal" in2="shape" result="effect1_innerShadow_2324_263"/>
</filter>
<filter id="filter5_in_2324_263" x="1302" y="605.5" width="228" height="289.036" filterUnits="userSpaceOnUse" color-interpolation-filters="sRGB">
<feFlood flood-opacity="0" result="BackgroundImageFix"/>
<feBlend mode="normal" in="SourceGraphic" in2="BackgroundImageFix" result="shape"/>
<feColorMatrix in="SourceAlpha" type="matrix" values="0 0 0 0 0 0 0 0 0 0 0 0 0 0 0 0 0 0 127 0" result="hardAlpha"/>
<feOffset dy="4.5357"/>
<feGaussianBlur stdDeviation="2.26785"/>
<feComposite in2="hardAlpha" operator="arithmetic" k2="-1" k3="1"/>
<feColorMatrix type="matrix" values="0 0 0 0 0 0 0 0 0 0 0 0 0 0 0 0 0 0 0.25 0"/>
<feBlend mode="normal" in2="shape" result="effect1_innerShadow_2324_263"/>
<feTurbulence type="fractalNoise" baseFrequency="2 2" stitchTiles="stitch" numOctaves="3" result="noise" seed="5386" />
<feColorMatrix in="noise" type="luminanceToAlpha" result="alphaNoise" />
<feComponentTransfer in="alphaNoise" result="coloredNoise1">
<feFuncA type="discrete" tableValues="1 1 1 1 1 1 1 1 1 1 1 1 1 1 1 1 1 1 1 1 1 1 1 1 1 1 1 1 1 1 1 1 1 1 1 1 1 1 1 1 1 1 1 1 1 1 1 1 1 1 1 0 0 0 0 0 0 0 0 0 0 0 0 0 0 0 0 0 0 0 0 0 0 0 0 0 0 0 0 0 0 0 0 0 0 0 0 0 0 0 0 0 0 0 0 0 0 0 0 0 "/>
</feComponentTransfer>
<feComposite operator="in" in2="effect1_innerShadow_2324_263" in="coloredNoise1" result="noise1Clipped" />
<feFlood flood-color="rgba(0, 0, 0, 0.25)" result="color1Flood" />
<feComposite operator="in" in2="noise1Clipped" in="color1Flood" result="color1" />
<feMerge result="effect2_noise_2324_263">
<feMergeNode in="effect1_innerShadow_2324_263" />
<feMergeNode in="color1" />
</feMerge>
</filter>
<filter id="filter6_ii_2324_263" x="549" y="2108" width="1906.58" height="252.16" filterUnits="userSpaceOnUse" color-interpolation-filters="sRGB">
<feFlood flood-opacity="0" result="BackgroundImageFix"/>
<feBlend mode="normal" in="SourceGraphic" in2="BackgroundImageFix" result="shape"/>
<feColorMatrix in="SourceAlpha" type="matrix" values="0 0 0 0 0 0 0 0 0 0 0 0 0 0 0 0 0 0 127 0" result="hardAlpha"/>
<feOffset dy="4"/>
<feGaussianBlur stdDeviation="2"/>
<feComposite in2="hardAlpha" operator="arithmetic" k2="-1" k3="1"/>
<feColorMatrix type="matrix" values="0 0 0 0 0 0 0 0 0 0 0 0 0 0 0 0 0 0 0.25 0"/>
<feBlend mode="normal" in2="shape" result="effect1_innerShadow_2324_263"/>
<feColorMatrix in="SourceAlpha" type="matrix" values="0 0 0 0 0 0 0 0 0 0 0 0 0 0 0 0 0 0 127 0" result="hardAlpha"/>
<feOffset dx="4" dy="4"/>
<feGaussianBlur stdDeviation="2"/>
<feComposite in2="hardAlpha" operator="arithmetic" k2="-1" k3="1"/>
<feColorMatrix type="matrix" values="0 0 0 0 0 0 0 0 0 0 0 0 0 0 0 0 0 0 0.93 0"/>
<feBlend mode="normal" in2="effect1_innerShadow_2324_263" result="effect2_innerShadow_2324_263"/>
</filter>
<filter id="filter7_i_2324_263" x="1742.8" y="2109.3" width="147.672" height="243.555" filterUnits="userSpaceOnUse" color-interpolation-filters="sRGB">
<feFlood flood-opacity="0" result="BackgroundImageFix"/>
<feBlend mode="normal" in="SourceGraphic" in2="BackgroundImageFix" result="shape"/>
<feColorMatrix in="SourceAlpha" type="matrix" values="0 0 0 0 0 0 0 0 0 0 0 0 0 0 0 0 0 0 127 0" result="hardAlpha"/>
<feOffset dy="-3"/>
<feGaussianBlur stdDeviation="1"/>
<feComposite in2="hardAlpha" operator="arithmetic" k2="-1" k3="1"/>
<feColorMatrix type="matrix" values="0 0 0 0 0 0 0 0 0 0 0 0 0 0 0 0 0 0 0.25 0"/>
<feBlend mode="normal" in2="shape" result="effect1_innerShadow_2324_263"/>
</filter>
<filter id="filter8_i_2324_263" x="521" y="2391" width="1962.61" height="262.614" filterUnits="userSpaceOnUse" color-interpolation-filters="sRGB">
<feFlood flood-opacity="0" result="BackgroundImageFix"/>
<feBlend mode="normal" in="SourceGraphic" in2="BackgroundImageFix" result="shape"/>
<feColorMatrix in="SourceAlpha" type="matrix" values="0 0 0 0 0 0 0 0 0 0 0 0 0 0 0 0 0 0 127 0" result="hardAlpha"/>
<feOffset dx="4" dy="4"/>
<feGaussianBlur stdDeviation="1.85"/>
<feComposite in2="hardAlpha" operator="arithmetic" k2="-1" k3="1"/>
<feColorMatrix type="matrix" values="0 0 0 0 0 0 0 0 0 0 0 0 0 0 0 0 0 0 0.42 0"/>
<feBlend mode="normal" in2="shape" result="effect1_innerShadow_2324_263"/>
</filter>
<filter id="filter9_i_2324_263" x="549.938" y="2445.51" width="1908.87" height="147.887" filterUnits="userSpaceOnUse" color-interpolation-filters="sRGB">
<feFlood flood-opacity="0" result="BackgroundImageFix"/>
<feBlend mode="normal" in="SourceGraphic" in2="BackgroundImageFix" result="shape"/>
<feColorMatrix in="SourceAlpha" type="matrix" values="0 0 0 0 0 0 0 0 0 0 0 0 0 0 0 0 0 0 127 0" result="hardAlpha"/>
<feOffset dy="-3.437"/>
<feGaussianBlur stdDeviation="1.14567"/>
<feComposite in2="hardAlpha" operator="arithmetic" k2="-1" k3="1"/>
<feColorMatrix type="matrix" values="0 0 0 0 0 0 0 0 0 0 0 0 0 0 0 0 0 0 0.25 0"/>
<feBlend mode="normal" in2="shape" result="effect1_innerShadow_2324_263"/>
</filter>
<radialGradient id="paint0_radial_2324_263" cx="0" cy="0" r="1" gradientUnits="userSpaceOnUse" gradientTransform="translate(1500) rotate(90) scale(1500)">
<stop stop-color="#AC47FA"/>
<stop offset="0.3" stop-color="#882DDD"/>
<stop offset="0.696782" stop-color="#4E1088"/>
<stop offset="1" stop-color="#0F0F1C"/>
</radialGradient>
<linearGradient id="paint1_linear_2324_263" x1="1664.74" y1="738.254" x2="1664.74" y2="2017.32" gradientUnits="userSpaceOnUse">
<stop stop-color="#B34DFF"/>
<stop offset="0.495192" stop-color="#8E2FE5"/>
<stop offset="1" stop-color="#6521A8"/>
</linearGradient>
<linearGradient id="paint2_linear_2324_263" x1="1596.14" y1="1134" x2="1596.14" y2="1452.63" gradientUnits="userSpaceOnUse">
<stop stop-color="#E17BFF"/>
<stop offset="0.5" stop-color="#C75DFF"/>
<stop offset="1" stop-color="#A63FFF"/>
</linearGradient>
<linearGradient id="paint3_linear_2324_263" x1="1831.44" y1="824.434" x2="1831.44" y2="1198.63" gradientUnits="userSpaceOnUse">
<stop stop-color="#3B0F7D"/>
<stop offset="0.5" stop-color="#23075A"/>
<stop offset="1" stop-color="#12033A"/>
</linearGradient>
<linearGradient id="paint4_linear_2324_263" x1="1711.24" y1="606.719" x2="1711.24" y2="918.548" gradientUnits="userSpaceOnUse">
<stop stop-color="#3B0F7D"/>
<stop offset="0.5" stop-color="#23075A"/>
<stop offset="1" stop-color="#12033A"/>
</linearGradient>
<linearGradient id="paint5_linear_2324_263" x1="1496.36" y1="422.023" x2="1496.36" y2="810.793" gradientUnits="userSpaceOnUse">
<stop stop-color="#FFB6FF"/>
<stop offset="0.5" stop-color="#FF8DF2"/>
<stop offset="1" stop-color="#D56CFF"/>
</linearGradient>
<linearGradient id="paint6_linear_2324_263" x1="1128.97" y1="763.066" x2="1128.97" y2="1890.19" gradientUnits="userSpaceOnUse">
<stop stop-color="#E58BFF"/>
<stop offset="0.5" stop-color="#C75DFF"/>
<stop offset="1" stop-color="#A63FFF"/>
</linearGradient>
<linearGradient id="paint7_linear_2324_263" x1="974.198" y1="1542.96" x2="1086.99" y2="1553.77" gradientUnits="userSpaceOnUse">
<stop stop-color="#C65CFF"/>
<stop offset="1" stop-color="#7E28E0"/>
</linearGradient>
<linearGradient id="paint8_linear_2324_263" x1="1221.13" y1="1644.93" x2="1351.22" y2="1711.38" gradientUnits="userSpaceOnUse">
<stop stop-color="#14458D"/>
<stop offset="1" stop-color="#C65CFF"/>
</linearGradient>
<linearGradient id="paint9_linear_2324_263" x1="1240.66" y1="921.953" x2="1240.66" y2="1678.28" gradientUnits="userSpaceOnUse">
<stop stop-color="#3B0F7D"/>
<stop offset="0.5" stop-color="#23075A"/>
<stop offset="1" stop-color="#12033A"/>
</linearGradient>
<linearGradient id="paint10_linear_2324_263" x1="1265.6" y1="781.078" x2="1265.6" y2="996.524" gradientUnits="userSpaceOnUse">
<stop stop-color="#481298"/>
<stop offset="0.5" stop-color="#23075A"/>
<stop offset="1" stop-color="#12033A"/>
</linearGradient>
<linearGradient id="paint11_linear_2324_263" x1="1414.71" y1="606.719" x2="1414.71" y2="890.2" gradientUnits="userSpaceOnUse">
<stop stop-color="#3B0F7D"/>
<stop offset="0.5" stop-color="#23075A"/>
<stop offset="1" stop-color="#12033A"/>
</linearGradient>
<linearGradient id="paint12_linear_2324_263" x1="1816.79" y1="2111.3" x2="1816.79" y2="2351.38" gradientUnits="userSpaceOnUse">
<stop stop-color="#E17BFF"/>
<stop offset="0.5" stop-color="#C75DFF"/>
<stop offset="1" stop-color="#A63FFF"/>
</linearGradient>
<linearGradient id="paint13_linear_2324_263" x1="1502.52" y1="2402.45" x2="1502.52" y2="2637.02" gradientUnits="userSpaceOnUse">
<stop stop-color="#E17BFF"/>
<stop offset="0.5" stop-color="#C75DFF"/>
<stop offset="1" stop-color="#A63FFF"/>
</linearGradient>
</defs>
</svg>
